<svg width="100" height="100" fill="none" xmlns="http://www.w3.org/2000/svg"><path d="m6 4 55-4c7 0 9 0 13 3l18 13c3 2 4 2 4 5v68c0 4-2 7-7 7l-65 4c-4 0-6 0-8-3L3 80l-3-8V11c0-3 2-6 6-7z" fill="none"/><path d="M61 0 6 4c-4 1-6 4-6 7v61l3 8 13 17c2 3 4 3 8 3l65-4c5 0 7-3 7-7V21c0-3-1-3-4-5L74 3c-4-3-6-3-13-3zM26 20c-5 0-7 0-9-2l-8-6c-1-1 0-2 1-2l54-4c4-1 6 1 8 2l9 7 1 1-55 3-1 1zm-6 68V30c0-2 1-3 3-4l63-3c2 0 3 1 3 3v58c0 3 0 5-4 5l-60 3c-4 1-5-1-5-4zm59-55c1 2 0 4-1 4l-3 1v43l-7 2c-3 0-4-1-6-4L43 49v29l6 1s0 4-5 4H30s0-2 2-3l3-1V41h-5c0-2 1-5 4-5l14-1 20 31V39l-5-1c0-2 1-4 3-4l13-1z" fill="#000"/></svg>
